<?xml version="1.0" standalone="no"?>
<!DOCTYPE svg PUBLIC "-//W3C//DTD SVG 20010904//EN"
 "http://www.w3.org/TR/2001/REC-SVG-20010904/DTD/svg10.dtd">
<svg version="1.0" xmlns="http://www.w3.org/2000/svg"
 width="692.000000pt" height="692.000000pt" viewBox="0 0 692.000000 692.000000"
 preserveAspectRatio="xMidYMid meet">
<metadata>
Created by potrace 1.11, written by Peter Selinger 2001-2013
</metadata>
<g transform="translate(0.000000,692.000000) scale(0.100000,-0.100000)"
fill="#000000" stroke="none">
<path d="M3385 6155 c-2 -5 -6 -38 -9 -72 -5 -60 -5 -63 18 -69 45 -11 71 -1
74 28 3 25 6 27 35 21 18 -3 33 -7 35 -8 2 -2 0 -47 -4 -100 -6 -83 -10 -98
-25 -102 -15 -4 -19 -15 -19 -48 l0 -43 76 -7 c41 -4 78 -5 81 -2 2 3 7 24 10
46 5 33 3 41 -11 41 -13 0 -16 11 -16 53 0 28 3 76 6 105 l7 52 38 0 c34 0 38
-3 41 -27 3 -25 8 -28 44 -31 l41 -3 6 68 c3 37 3 70 1 72 -2 2 -99 11 -215
20 -145 12 -212 14 -214 6z"/>
<path d="M3092 6140 c-179 -20 -192 -27 -192 -99 1 -25 7 -98 15 -161 11 -99
16 -117 36 -133 18 -15 33 -18 66 -13 24 3 95 11 159 17 148 15 164 26 164
109 0 32 -5 62 -11 65 -6 4 -30 4 -54 1 -40 -7 -44 -10 -47 -39 l-3 -32 -95
-11 c-52 -6 -98 -9 -102 -5 -3 3 -11 44 -17 91 -7 64 -7 88 2 97 7 6 54 15
105 19 90 6 93 6 99 -15 4 -17 13 -21 43 -21 63 0 67 4 59 63 -4 29 -8 60 -8
70 -1 21 -13 21 -219 -3z"/>
<path d="M2572 6031 c-82 -26 -82 -26 -76 -56 9 -42 23 -67 35 -60 13 8 12 2
-12 -116 -12 -62 -27 -109 -36 -116 -14 -11 -15 -19 -4 -52 11 -37 13 -39 39
-31 15 5 51 16 80 25 28 8 52 19 52 24 0 19 -23 71 -31 71 -5 0 -9 4 -9 9 0 7
101 41 122 41 3 0 3 -10 1 -23 -2 -12 0 -34 6 -49 l10 -27 76 24 c42 13 79 26
82 29 11 11 -19 76 -35 76 -21 0 -189 166 -174 171 17 6 -9 89 -28 88 -8 -1
-52 -13 -98 -28z m86 -170 l21 -29 -31 -11 c-17 -6 -32 -10 -33 -9 -5 7 8 78
14 78 4 0 17 -13 29 -29z"/>
<path d="M4157 6018 c-25 -23 -117 -255 -117 -294 0 -34 40 -59 172 -108 122
-44 179 -55 205 -38 11 7 53 95 53 112 0 12 -94 42 -98 32 -1 -5 -9 -18 -17
-28 -13 -19 -15 -18 -82 5 -37 13 -80 30 -95 37 l-27 14 24 63 c13 34 28 74
34 90 6 15 14 27 18 27 5 0 46 -15 93 -33 76 -30 85 -36 88 -61 3 -21 12 -31
37 -42 19 -8 40 -14 47 -14 16 0 63 119 52 130 -12 11 -330 130 -349 130 -8 0
-25 -10 -38 -22z"/>
<path d="M2075 5819 c-82 -44 -154 -84 -158 -88 -13 -13 25 -81 44 -81 23 0
117 -169 99 -180 -9 -5 -6 -18 9 -49 12 -22 23 -41 26 -41 2 0 34 16 69 36
l66 36 -20 39 c-13 24 -27 39 -39 39 -34 0 -32 28 4 50 37 23 85 19 85 -7 0
-9 9 -31 21 -49 l20 -34 67 35 c101 52 97 46 73 94 -17 33 -25 40 -38 32 -10
-5 -28 -5 -45 1 l-29 10 20 20 c29 26 26 70 -6 126 -38 68 -63 92 -92 92 -14
-1 -93 -37 -176 -81z m182 -82 c-2 -6 -38 -29 -80 -51 -76 -40 -78 -40 -92
-22 -8 11 -15 25 -15 30 0 6 35 30 78 53 l77 43 18 -22 c10 -11 16 -26 14 -31z"/>
<path d="M4610 5838 c-23 -37 -24 -44 -10 -53 14 -9 -94 -181 -112 -177 -14 2
-65 -65 -56 -73 11 -11 360 -216 362 -214 1 2 13 22 26 44 13 22 30 49 37 61
12 19 10 23 -28 49 l-42 27 -17 -22 c-9 -13 -21 -21 -26 -19 -25 11 -144 82
-148 88 -9 15 90 166 110 169 19 3 54 48 54 70 0 10 -110 82 -124 82 -3 0 -15
-15 -26 -32z"/>
<path d="M3130 5695 c-547 -71 -1017 -305 -1385 -687 -415 -430 -645 -999
-645 -1593 l0 -141 -37 4 c-52 6 -63 18 -63 68 0 47 6 52 36 29 49 -37 47 13
-3 54 l-36 30 6 67 c7 73 12 83 29 66 7 -7 18 -12 25 -12 22 0 14 35 -13 61
-23 22 -25 29 -20 77 3 28 9 77 12 107 6 47 4 55 -10 55 -17 0 -17 -1 -21 -40
-5 -72 -17 -109 -32 -103 -13 5 -14 -5 -9 -78 6 -80 0 -115 -20 -107 -12 4
-17 -58 -6 -78 5 -10 4 -45 -4 -92 -21 -123 -18 -117 -83 -141 -40 -15 -71
-34 -96 -62 l-37 -42 7 -79 6 -78 -83 53 c-46 30 -102 65 -125 78 -43 24 -59
54 -48 89 12 39 -131 190 -155 163 -4 -4 -3 -48 2 -98 9 -81 8 -91 -7 -100
-116 -68 -131 -141 -65 -325 36 -99 68 -233 130 -535 11 -49 22 -103 26 -119
6 -26 5 -28 -17 -21 -28 10 -28 10 -99 -4 -127 -23 -186 -51 -263 -124 -28
-27 -29 -31 -23 -88 4 -34 12 -73 17 -87 6 -15 8 -41 4 -58 -7 -39 20 -76 55
-76 14 0 147 2 295 4 149 2 409 1 580 -1 303 -4 385 1 385 21 0 7 14 7 38 2
20 -5 109 -10 197 -11 243 -3 233 -1 296 -57 94 -85 359 -276 383 -276 3 0 29
-14 58 -31 190 -112 523 -219 791 -254 170 -22 458 -20 627 5 497 72 911 277
1296 641 31 30 89 45 127 33 18 -6 17 -8 -12 -38 -36 -38 -38 -47 -11 -71 11
-10 20 -29 20 -42 0 -33 -42 -32 -60 2 -17 32 -30 32 -61 -1 -33 -36 -219
-180 -304 -236 -38 -25 -113 -69 -165 -98 -52 -28 -102 -60 -112 -71 -9 -10
-27 -19 -41 -19 -14 0 -71 -19 -128 -41 -109 -43 -350 -113 -432 -125 -47 -6
-49 -8 -42 -33 10 -38 9 -72 -4 -105 l-12 -29 -24 36 c-14 20 -25 49 -25 64 0
46 -10 52 -60 43 -25 -5 -52 -8 -60 -8 -8 1 -59 0 -112 0 l-98 -2 0 -34 c0
-19 5 -36 11 -38 6 -2 9 -17 7 -33 -3 -29 -5 -27 -46 38 l-44 67 -51 0 c-29 0
-75 3 -104 6 -50 6 -52 6 -59 -21 -4 -17 -2 -30 5 -35 14 -8 5 -127 -11 -136
-5 -3 -30 -3 -55 1 l-46 7 6 66 c5 44 12 69 22 74 18 11 20 57 3 62 -7 3 -32
6 -55 9 -40 5 -41 4 -46 -27 -2 -17 0 -34 5 -37 6 -4 5 -40 -3 -94 -14 -111
-12 -114 111 -130 120 -14 124 -12 140 100 10 73 15 85 31 85 17 0 19 -8 19
-64 0 -44 -5 -67 -15 -76 -8 -7 -15 -23 -15 -36 0 -19 7 -24 45 -30 25 -3 52
-4 60 0 19 7 20 55 1 70 -10 8 -12 23 -7 55 l6 43 55 -86 c55 -86 55 -86 97
-86 42 0 43 0 43 35 0 19 -4 35 -10 35 -6 0 -10 30 -10 70 0 62 2 70 19 70 13
0 20 -10 25 -31 9 -48 7 -109 -4 -109 -10 0 -14 -52 -6 -61 3 -3 29 -2 58 1
52 5 53 6 50 35 -2 16 -7 32 -11 35 -5 3 -12 35 -15 72 -7 67 -7 68 16 68 33
0 99 -97 102 -151 2 -22 5 -42 8 -44 2 -3 32 0 66 6 65 12 76 25 52 69 -13 24
30 154 53 158 19 4 40 -59 42 -128 3 -67 4 -70 21 -70 8 0 54 11 102 24 48 14
106 29 129 35 40 11 42 13 33 36 -6 16 -6 25 0 25 6 0 10 -6 10 -14 0 -8 5
-18 11 -21 12 -8 99 23 99 35 0 21 -21 61 -29 56 -5 -3 -11 0 -14 8 -6 15 36
38 56 30 7 -2 19 -20 26 -39 7 -19 16 -35 21 -35 8 0 102 38 108 44 1 2 -2 15
-9 29 -7 16 -23 27 -43 31 -27 6 -29 8 -13 17 9 5 17 19 17 30 0 16 5 18 25
13 18 -4 47 5 106 36 58 30 84 39 92 31 13 -13 16 -10 -55 -49 -31 -17 -64
-29 -73 -26 -8 4 -27 -1 -40 -10 -25 -17 -25 -17 -8 -48 10 -16 23 -32 29 -35
13 -5 214 103 226 121 20 29 -34 136 -68 136 -9 0 -52 -19 -96 -41 -55 -29
-82 -39 -90 -31 -6 6 -7 15 -4 20 12 20 116 70 135 65 26 -7 64 15 57 32 -3 8
-1 17 4 20 12 8 81 -101 74 -118 -3 -8 4 -24 14 -37 l19 -24 47 30 c25 16 46
31 46 34 -1 12 -41 52 -47 47 -3 -4 -23 19 -45 49 -38 54 -44 80 -14 55 22
-18 58 7 51 35 -5 24 21 53 34 38 51 -59 79 -102 71 -110 -5 -5 -1 -18 11 -33
l19 -24 41 28 c22 16 42 32 45 36 8 13 -26 58 -40 53 -7 -3 -32 20 -57 52 -40
53 -42 57 -25 70 14 10 22 10 37 1 14 -9 22 -7 38 7 11 10 17 24 14 32 -4 11
7 14 54 14 47 0 64 -4 78 -20 10 -11 15 -23 12 -27 -9 -8 22 -43 38 -43 6 0
26 16 45 35 33 34 33 35 15 55 -10 11 -26 20 -35 20 -33 0 -42 26 -39 108 3
54 0 84 -9 94 -11 14 0 17 95 23 94 6 318 0 333 -10 15 -9 441 -5 485 5 28 6
66 10 85 9 19 -2 99 -3 177 -2 130 1 148 4 196 26 86 41 84 33 83 273 -1 185
-3 214 -18 231 -9 10 -54 36 -100 58 -46 22 -85 41 -87 42 -2 2 20 29 51 60
47 50 88 119 113 188 7 19 8 19 17 -5 5 -14 8 -43 7 -65 -3 -75 1 -105 14
-105 18 0 57 43 57 63 0 9 5 19 10 22 6 3 10 15 10 26 0 25 17 25 25 -1 9 -29
34 -25 46 8 14 37 -4 129 -32 158 l-21 23 23 -6 c13 -4 33 -12 44 -19 11 -6
35 -15 54 -19 34 -7 34 -7 28 25 -11 54 -101 122 -142 106 -8 -3 -15 -2 -15 3
0 5 25 19 55 31 83 33 72 58 -27 61 -49 2 -76 -10 -117 -53 l-24 -24 -36 38
c-25 27 -48 41 -73 45 -48 7 -108 -4 -108 -21 0 -7 25 -25 55 -40 62 -30 70
-46 24 -46 -38 0 -66 -14 -101 -52 -26 -27 -46 -73 -36 -83 5 -5 75 18 84 28
4 4 12 7 18 7 7 0 8 -3 1 -8 -43 -30 -72 -165 -42 -190 12 -10 19 -6 41 22 14
19 26 37 26 39 0 10 65 79 83 88 16 9 17 7 11 -18 -10 -45 -70 -145 -106 -179
-35 -32 -92 -74 -102 -74 -18 0 -54 213 -91 530 -7 69 -19 157 -24 195 -6 39
-17 122 -26 185 -27 207 -55 404 -60 432 -3 20 0 28 14 33 11 3 22 18 26 33 5
22 1 31 -24 52 -16 14 -30 35 -29 45 1 11 -6 49 -15 85 -36 140 -37 157 -11
181 21 19 24 32 24 88 0 36 -4 71 -8 77 -4 6 -25 15 -47 20 -42 10 -52 27 -54
91 -1 19 -8 36 -18 41 -24 14 -36 124 -17 160 8 15 14 40 14 56 0 16 8 35 18
42 26 19 7 42 -66 78 -60 30 -82 56 -82 96 0 11 -11 27 -25 36 -22 14 -32 15
-65 5 -40 -12 -45 -20 -52 -81 -2 -19 -15 -31 -51 -49 -52 -26 -65 -24 -48 8
9 16 8 28 -3 53 -14 34 -201 280 -217 286 -15 6 -70 -42 -67 -59 4 -23 -137
-132 -161 -124 -10 3 -30 -6 -51 -23 l-34 -29 112 -145 c108 -142 125 -158
161 -158 27 0 101 59 101 81 0 14 7 19 26 19 14 0 40 12 59 26 l34 25 3 -28
c2 -15 7 -26 12 -25 17 7 21 -17 21 -121 0 -86 -3 -108 -17 -124 -10 -11 -18
-35 -18 -54 0 -43 -6 -51 -57 -73 -40 -18 -42 -21 -45 -65 l-3 -46 -54 108
c-63 126 -183 312 -265 412 -457 554 -1104 859 -1811 854 -88 -1 -203 -7 -255
-14z m2370 -665 c43 -58 50 -73 40 -85 -21 -25 -34 -17 -88 56 -43 57 -51 73
-41 85 21 25 36 15 89 -56z m-84 -122 c27 -39 28 -41 9 -54 -10 -8 -22 -14
-26 -14 -4 0 -32 33 -63 73 l-56 72 23 18 c21 17 23 16 53 -18 18 -20 45 -54
60 -77z m433 78 c9 -11 8 -15 -5 -20 -20 -8 -39 7 -30 23 10 15 21 14 35 -3z
m-2024 -63 c168 -56 251 -91 348 -148 38 -22 76 -44 86 -50 36 -21 167 -124
195 -154 l30 -31 -95 0 -94 0 -80 76 c-44 43 -127 112 -185 155 -95 71 -129
92 -240 150 -44 23 -30 24 35 2z m-875 -28 c-30 -19 -65 -39 -78 -45 -12 -5
-28 -14 -35 -20 -6 -6 -44 -34 -83 -63 -39 -28 -94 -72 -122 -97 -36 -31 -62
-47 -89 -50 -36 -5 -38 -7 -41 -42 l-3 -38 -92 0 -92 1 68 64 c38 36 73 65 78
65 6 0 20 9 32 20 12 12 42 33 67 47 25 14 47 29 50 32 5 6 129 67 195 97 35
16 175 62 190 63 6 1 -15 -15 -45 -34z m525 -138 c31 -71 53 -132 51 -136 -4
-6 -187 -8 -253 -2 -14 1 -3 37 39 131 73 163 75 167 95 148 7 -8 38 -71 68
-141z m305 69 c34 -20 63 -36 65 -36 8 0 162 -115 226 -169 98 -82 98 -81 -33
-81 l-113 1 -59 80 c-32 44 -104 128 -159 185 l-100 105 56 -25 c31 -13 83
-41 117 -60z m-645 32 c-22 -22 -56 -57 -75 -77 -19 -21 -57 -64 -85 -96 -27
-33 -54 -63 -60 -67 -10 -8 -183 -3 -191 5 -14 14 259 196 371 248 81 37 86
36 40 -13z m2645 32 c0 -5 -8 -10 -17 -10 -15 0 -16 2 -3 10 19 12 20 12 20 0z
m125 0 c3 -5 1 -10 -4 -10 -6 0 -11 5 -11 10 0 6 2 10 4 10 3 0 8 -4 11 -10z
m75 -75 c0 -19 -7 -20 -134 -20 -118 0 -136 2 -139 17 -6 20 13 23 165 23 101
0 108 -1 108 -20z m-2774 -94 l-41 -108 -50 2 c-63 3 -65 3 -65 13 0 7 188
202 195 202 1 0 -16 -49 -39 -109z m450 6 c40 -40 80 -87 90 -102 l19 -29 -25
7 c-14 4 -44 7 -67 7 -47 0 -49 3 -93 125 -10 28 -21 58 -25 69 -14 32 24 4
101 -77z m2222 16 c-15 -2 -42 -2 -60 0 -18 2 -6 4 27 4 33 0 48 -2 33 -4z
m118 -204 c4 -7 -1 -16 -10 -21 -9 -5 -16 -15 -16 -22 0 -10 -30 -13 -135 -12
-121 1 -135 3 -135 19 0 9 -7 17 -15 17 -18 0 -20 16 -2 23 26 11 306 7 313
-4z m-3576 -86 c0 -5 -18 -32 -40 -61 -22 -29 -40 -54 -40 -57 0 -3 -16 -30
-36 -61 -31 -49 -98 -183 -131 -265 -11 -26 -12 -26 -127 -27 -70 -1 -116 3
-116 9 0 17 81 171 128 244 49 77 137 193 161 213 16 13 201 18 201 5z m1861
-45 c24 -29 58 -73 74 -98 17 -25 35 -51 42 -58 21 -22 134 -252 128 -262 -3
-5 -71 -8 -150 -7 l-145 2 0 45 c-1 118 -71 294 -150 379 -22 24 -40 45 -40
47 0 2 44 4 98 4 l98 0 45 -52z m350 -20 c64 -78 147 -209 201 -321 21 -42 38
-79 38 -81 0 -3 -56 -4 -125 -4 -101 1 -125 4 -125 15 0 30 -120 263 -183 355
-37 53 -67 100 -67 103 0 3 46 4 102 3 l102 -3 57 -67z m1166 0 c-2 -13 -4 -5
-4 17 -1 22 1 32 4 23 2 -10 2 -28 0 -40z m60 -5 c-3 -10 -5 -2 -5 17 0 19 2
27 5 18 2 -10 2 -26 0 -35z m-3158 -40 l30 -32 -38 -83 c-21 -46 -49 -114 -61
-153 -13 -38 -30 -76 -39 -83 -18 -14 -317 -17 -326 -2 -10 16 122 262 185
345 l39 50 90 -5 c85 -6 92 -8 120 -37z m805 20 c69 -19 113 -47 121 -77 24
-90 45 -195 52 -261 l4 -40 -238 0 -238 0 -3 175 c-1 96 0 185 3 198 5 21 9
22 122 22 79 0 136 -5 177 -17z m2543 -67 c5 -4 1 -13 -8 -19 -20 -15 -31 -57
-19 -72 6 -7 4 -22 -6 -40 -18 -35 -13 -52 18 -58 14 -2 6 -5 -18 -6 -22 0
-43 -4 -47 -7 -10 -10 4 -34 21 -34 12 0 11 -4 -6 -20 -12 -11 -26 -20 -32
-20 -5 0 -10 -7 -10 -15 0 -14 13 -19 65 -28 11 -1 -60 -3 -157 -2 -171 0
-221 6 -158 18 32 7 42 36 13 38 -17 1 -17 2 0 6 29 7 14 28 -24 32 -30 3 -31
5 -10 10 29 8 53 41 34 48 -7 2 -9 11 -6 19 4 10 -2 14 -21 14 -18 0 -24 4
-20 15 4 11 -1 15 -17 16 -20 1 -18 2 9 10 29 9 46 39 22 39 -6 0 -10 8 -8 17
2 13 -6 19 -32 24 -42 7 -25 16 40 23 72 6 369 0 377 -8z m-3298 -264 c1 -44
-14 -60 -43 -49 -11 5 -10 17 7 68 16 51 22 59 28 44 4 -11 8 -39 8 -63z
m3351 -62 c0 -5 -7 -10 -15 -10 -8 0 -15 5 -15 10 0 6 7 10 15 10 8 0 15 -4
15 -10z m-257 -47 c-13 -2 -33 -2 -45 0 -13 2 -3 4 22 4 25 0 35 -2 23 -4z
m54 1 c-3 -3 -12 -4 -19 -1 -8 3 -5 6 6 6 11 1 17 -2 13 -5z m91 -1 c-16 -2
-40 -2 -55 0 -16 2 -3 4 27 4 30 0 43 -2 28 -4z m-259 -7 c-2 -2 -40 -6 -84
-9 -51 -3 -65 -2 -40 2 43 9 131 14 124 7z m-3606 -11 c12 -5 12 -13 0 -58
-19 -75 -44 -228 -51 -327 l-7 -85 -129 -3 -129 -3 7 78 c14 155 64 379 90
395 13 9 197 11 219 3z m447 -22 c0 -16 -7 -55 -15 -88 -8 -33 -20 -129 -27
-212 l-12 -153 -172 0 c-138 0 -174 3 -184 15 -13 16 -7 145 10 205 6 19 10
52 10 72 0 20 4 39 9 42 5 4 12 25 16 49 3 23 11 54 17 70 l10 27 169 0 169 0
0 -27z m178 -215 l2 -238 -62 0 c-89 0 -92 3 -85 96 11 142 34 283 62 371 3 7
19 11 42 10 l38 -2 3 -237z m949 223 c-2 -11 -1 -40 4 -65 10 -54 -3 -84 -64
-148 -78 -82 -137 -104 -303 -112 -94 -5 -123 -4 -126 6 -2 7 -5 86 -7 176
l-3 162 252 0 c244 0 252 -1 247 -19z m860 7 c12 -17 50 -147 59 -203 10 -65
24 -196 24 -228 l0 -37 -182 2 -183 3 -2 50 c-3 43 -20 210 -28 270 -2 11 -8
40 -14 65 -23 96 -33 90 153 90 119 0 166 -3 173 -12z m350 -19 c31 -64 65
-227 77 -371 l7 -78 -130 0 c-71 0 -132 4 -135 9 -5 8 -11 66 -21 214 -2 31
-6 61 -10 66 -3 5 -8 31 -11 57 -3 26 -11 65 -18 86 -8 20 -11 40 -8 43 3 3
58 4 121 3 113 -3 116 -4 128 -29z m1126 -15 c55 -4 77 -10 77 -19 0 -8 -10
-15 -22 -17 -32 -4 -30 -40 2 -49 14 -4 18 -7 9 -8 -12 -1 -17 -11 -17 -41 -1
-36 2 -40 24 -40 15 0 24 -6 24 -15 0 -22 -33 -18 -48 5 -7 11 -19 20 -28 20
-12 0 -14 -9 -12 -37 2 -31 7 -39 26 -41 19 -3 21 -6 11 -19 -7 -8 -14 -22
-15 -31 -1 -10 -5 -29 -9 -44 -6 -25 -4 -28 16 -28 18 0 20 -3 10 -9 -7 -5
-11 -13 -7 -19 6 -11 -25 -22 -62 -22 -17 0 -23 -5 -20 -17 2 -9 5 -16 8 -16
3 0 41 -5 85 -11 l80 -11 3 -33 c3 -30 1 -32 -27 -32 -16 0 -36 -3 -45 -6 -18
-7 -22 -34 -4 -34 6 0 4 -7 -5 -18 -28 -31 -20 -41 36 -44 l52 -3 11 -75 c7
-41 16 -93 22 -115 6 -22 16 -80 22 -130 6 -49 22 -142 35 -205 13 -63 26
-132 30 -153 3 -21 8 -44 11 -51 3 -9 -23 -22 -79 -40 l-83 -27 -117 51 c-117
50 -118 51 -225 51 -59 0 -141 0 -182 0 -41 1 -88 0 -105 -1 -16 -1 -42 3 -56
8 -26 10 -26 11 -17 74 6 35 11 64 12 65 0 1 21 3 44 6 54 5 71 20 51 43 -8
10 -9 15 -2 11 18 -11 43 3 43 24 0 17 -8 19 -67 20 -38 1 -58 4 -45 6 12 2
29 17 37 32 8 16 21 31 30 35 22 8 9 26 -18 26 -21 1 -20 2 6 18 15 9 27 22
27 28 0 15 -43 26 -65 18 -14 -6 -16 -1 -13 37 l4 44 67 14 c43 9 67 19 67 28
0 11 -33 19 -62 14 -5 0 -8 3 -8 9 0 5 9 10 20 10 11 0 20 7 20 15 0 11 -12
15 -45 15 -42 0 -45 2 -45 28 0 45 14 56 82 64 126 14 168 21 168 27 -1 14
-16 30 -30 29 -33 -2 -50 3 -50 14 0 6 3 9 6 5 10 -10 64 14 64 29 0 18 -35
35 -57 27 -10 -3 -15 -3 -11 2 4 4 25 11 45 14 24 4 38 12 38 21 0 11 -15 16
-62 18 -58 3 -63 5 -63 26 0 14 -9 27 -22 34 -22 10 -22 11 10 17 31 7 46 35
18 35 -8 0 -16 7 -20 15 -3 9 0 15 9 15 8 0 15 7 15 15 0 8 -6 15 -14 15 -17
0 -29 27 -16 35 6 4 10 13 10 22 0 11 -7 14 -25 11 -37 -7 -30 9 10 26 45 19
44 34 -2 39 -31 3 -34 5 -17 11 11 4 26 22 32 40 16 43 15 46 -6 46 -11 0 -18
7 -18 20 0 11 3 20 6 21 49 7 285 24 315 22 22 -1 75 -5 118 -9z m-1848 -278
c2 -34 5 -81 7 -106 l3 -45 -198 -3 c-192 -2 -224 3 -178 28 11 5 29 10 40 10
11 0 32 5 48 12 15 6 30 12 33 13 16 5 87 42 96 50 6 6 23 19 38 30 15 11 41
42 58 69 30 46 32 47 40 26 5 -13 10 -51 13 -84z m1958 -33 c-7 -2 -19 -2 -25
0 -7 3 -2 5 12 5 14 0 19 -2 13 -5z m-558 -133 c-3 -5 -11 -10 -16 -10 -6 0
-7 5 -4 10 3 6 11 10 16 10 6 0 7 -4 4 -10z m35 -70 c0 -5 -7 -10 -15 -10 -8
0 -15 5 -15 10 0 6 7 10 15 10 8 0 15 -4 15 -10z m-3552 -45 c4 -77 35 -277
52 -346 20 -83 24 -81 -116 -78 -97 3 -124 12 -124 44 0 8 -7 34 -14 57 -8 24
-18 59 -21 78 -24 134 -32 192 -34 238 l-2 53 128 -3 128 -3 3 -40z m456 -57
c6 -90 19 -200 31 -263 2 -11 7 -39 11 -62 l7 -43 -166 0 c-162 0 -167 1 -181
23 -8 12 -17 36 -19 54 -3 17 -8 36 -12 42 -9 16 -36 187 -42 274 l-5 77 185
0 184 0 7 -102z m224 -130 l-3 -233 -39 0 -40 0 -17 70 c-14 62 -26 126 -34
190 -2 11 -6 62 -10 113 l-7 92 76 0 76 0 -2 -232z m1440 150 c-4 -46 -10
-108 -13 -138 -2 -30 -9 -70 -14 -88 -5 -18 -10 -35 -10 -37 0 -3 -3 -24 -6
-48 -10 -62 -26 -79 -72 -75 l-38 3 -6 120 c-7 140 -26 194 -103 288 l-46 57
158 0 158 0 -8 -82z m452 50 c0 -133 -60 -409 -92 -429 -5 -4 -82 -7 -169 -8
-125 -2 -159 1 -159 11 0 7 7 51 16 98 19 103 33 225 35 303 l2 57 183 0 184
0 0 -32z m345 -40 c-7 -91 -41 -272 -64 -341 l-18 -52 -110 -2 c-60 -1 -115 2
-122 6 -10 7 -8 28 8 107 17 79 40 279 41 342 0 9 34 12 135 12 l136 0 -6 -72z
m-1596 42 c124 -23 175 -121 183 -355 l3 -80 -185 0 -185 0 -3 210 c-1 115 0
215 2 222 6 16 110 17 185 3z m2238 -42 c-3 -8 -6 -5 -6 6 -1 11 2 17 5 13 3
-3 4 -12 1 -19z m-87 -2 c0 -3 -4 -8 -10 -11 -5 -3 -10 -1 -10 4 0 6 5 11 10
11 6 0 10 -2 10 -4z m-5147 -74 l25 -38 -29 4 c-25 4 -29 8 -29 38 0 19 2 34
4 34 2 0 15 -17 29 -38z m696 13 c16 -8 34 -28 40 -46 l11 -32 -21 19 c-33 30
-143 30 -256 1 -51 -13 -93 -21 -93 -17 0 10 12 15 135 56 112 37 143 41 184
19z m9 -165 c18 -11 37 -18 42 -15 10 6 17 -11 26 -70 5 -34 3 -46 -4 -41 -17
10 -62 -4 -62 -20 0 -8 9 -19 21 -26 19 -13 52 -74 70 -131 10 -36 9 -35 -112
37 -66 40 -102 56 -128 56 -20 0 -47 9 -61 20 l-25 20 61 0 c34 0 81 -7 104
-15 23 -8 47 -15 52 -15 6 0 8 26 6 60 -3 56 3 73 17 50 12 -19 35 -10 35 14
0 56 -101 77 -250 52 -52 -9 -103 -19 -112 -22 -10 -3 -18 -1 -18 4 0 8 47 21
205 55 50 11 102 6 133 -13z m-48 -70 l25 -8 -25 0 c-14 -1 -43 3 -65 7 l-40
9 40 0 c22 0 51 -4 65 -8z m-133 -6 c-3 -3 -12 -4 -19 -1 -8 3 -5 6 6 6 11 1
17 -2 13 -5z m-557 -40 c0 -14 7 -27 18 -31 59 -20 148 -57 156 -64 5 -4 -26
1 -68 12 -42 11 -81 17 -87 13 -6 -3 -8 -29 -5 -62 4 -41 0 -30 -14 38 -22
111 -24 133 -10 125 6 -3 10 -17 10 -31z m980 -113 c19 -17 30 -30 24 -31 -6
0 -35 23 -65 51 -54 52 -25 37 41 -20z m4147 13 c-3 -3 -12 -4 -19 -1 -8 3 -5
6 6 6 11 1 17 -2 13 -5z m-3282 -125 c43 -104 116 -233 177 -315 21 -28 38
-54 38 -57 0 -4 -44 -7 -98 -7 l-99 0 -66 80 c-37 44 -67 82 -67 84 0 2 -15
26 -34 54 -45 68 -129 240 -121 251 3 5 56 9 117 8 l112 -2 41 -96z m392 88
c5 -7 17 -37 27 -67 19 -59 23 -69 57 -145 13 -27 26 -58 30 -67 16 -36 -15
-48 -127 -48 -100 0 -104 -1 -104 -22 l0 -21 -25 23 c-14 13 -25 27 -25 32 0
5 -8 18 -18 29 -11 10 -25 32 -33 47 -8 15 -29 52 -47 83 -37 64 -73 155 -64
164 12 11 321 4 329 -8z m151 -27 c2 -20 -1 -47 -6 -60 -8 -22 -10 -20 -25 25
-23 65 -22 77 6 73 17 -2 23 -10 25 -38z m827 30 c3 -5 8 -60 10 -122 3 -62 8
-133 11 -158 9 -62 8 -109 -3 -150 l-9 -35 -87 -3 -87 -3 0 76 0 75 -78 0
c-92 0 -105 9 -121 82 -10 43 -12 223 -4 241 6 11 361 9 368 -3z m522 1 c4 -2
-28 -93 -41 -118 -15 -27 -15 -26 -16 50 l0 78 28 -5 c15 -2 28 -5 29 -5z
m428 -2 c7 -10 -95 -214 -126 -253 -19 -25 -25 -26 -115 -26 -84 0 -94 -2 -94
-18 0 -23 -36 -62 -56 -62 -17 0 -35 15 -51 45 -9 16 -7 29 12 65 13 25 41 94
62 153 l37 108 163 -2 c90 0 165 -5 168 -10z m340 1 c16 -26 -150 -306 -253
-426 l-37 -43 -77 -1 c-43 0 -78 2 -78 5 0 34 30 120 56 160 31 50 114 207
114 218 0 3 9 26 20 51 l19 46 115 0 c65 0 117 -4 121 -10z m-3464 -27 c13
-16 12 -17 -3 -4 -10 7 -18 15 -18 17 0 8 8 3 21 -13z m49 -33 c0 -5 -2 -10
-4 -10 -3 0 -8 5 -11 10 -3 6 -1 10 4 10 6 0 11 -4 11 -10z m-1052 -85 c0 -25
-2 -24 -9 10 -10 51 -10 92 1 50 4 -16 8 -43 8 -60z m462 25 c0 -5 -4 -10 -10
-10 -5 0 -10 5 -10 10 0 6 5 10 10 10 6 0 10 -4 10 -10z m500 -55 c56 -36 124
-73 152 -83 34 -12 54 -25 59 -40 10 -27 16 -30 -157 77 -136 84 -174 110
-162 111 4 0 53 -29 108 -65z m-463 23 c-3 -8 -6 -5 -6 6 -1 11 2 17 5 13 3
-3 4 -12 1 -19z m-490 -70 c-3 -7 -5 -2 -5 12 0 14 2 19 5 13 2 -7 2 -19 0
-25z m10 -60 c-3 -7 -5 -2 -5 12 0 14 2 19 5 13 2 -7 2 -19 0 -25z m1183 -63
c11 -13 10 -14 -4 -9 -9 3 -16 10 -16 15 0 13 6 11 20 -6z m4097 -28 c12 -10
27 -16 33 -12 6 4 17 -1 24 -10 11 -16 15 -16 43 -2 32 17 43 14 43 -13 0 -25
45 -41 91 -34 30 5 39 3 39 -8 0 -20 64 -41 100 -33 17 4 30 11 30 16 0 5 17
9 39 9 29 0 40 4 44 19 3 13 12 18 32 16 15 -2 39 1 54 7 52 20 134 28 174 17
29 -8 41 -17 48 -39 6 -16 17 -31 25 -34 11 -4 8 -11 -11 -30 -28 -28 -33 -56
-11 -56 8 0 16 -5 18 -11 3 -9 10 -9 27 0 36 20 43 3 34 -80 -8 -70 -9 -74
-33 -75 -58 -2 -70 -5 -70 -18 0 -11 -18 -15 -75 -18 -54 -2 -75 0 -75 9 0 14
-31 20 -155 28 -148 10 -184 14 -225 25 -52 14 -171 29 -315 40 -127 10 -325
55 -369 84 -14 9 -33 28 -42 41 -16 24 -15 27 1 45 14 15 21 17 32 9 7 -6 13
-8 13 -4 0 4 7 2 15 -5 8 -7 20 -8 27 -4 7 5 31 10 53 11 67 4 145 25 145 40
0 7 -7 13 -15 13 -9 0 -12 6 -9 15 4 8 10 15 16 15 5 0 6 -5 3 -10 -3 -6 2
-13 11 -17 10 -4 19 -2 22 5 2 7 16 12 30 12 16 0 32 8 40 20 7 11 19 20 27
20 8 0 15 7 15 15 0 18 26 10 57 -18z m-446 -20 c-60 -74 -63 -75 -35 -16 20
42 30 54 39 46 9 -8 8 -16 -4 -30z m-4721 -41 c176 -53 500 -127 940 -215 107
-22 188 -40 180 -40 -17 -1 -262 42 -330 58 -25 6 -144 31 -265 56 -121 25
-301 65 -400 87 -98 23 -186 41 -195 42 -16 1 -28 21 -29 46 -1 10 2 11 7 4 4
-7 45 -23 92 -38z m-73 -118 c-3 -8 -6 -5 -6 6 -1 11 2 17 5 13 3 -3 4 -12 1
-19z m2023 -18 c0 -16 7 -20 31 -20 25 0 46 -14 108 -73 92 -89 170 -148 293
-223 54 -33 81 -53 64 -49 -15 3 -42 9 -60 12 -17 3 -36 10 -42 14 -6 5 -28
15 -50 23 -70 24 -260 121 -279 142 -5 6 -35 28 -66 48 -31 20 -83 61 -115 91
l-59 54 88 1 c80 0 87 -1 87 -20z m1055 -42 c-55 -150 -118 -293 -134 -303
-12 -7 -22 9 -65 105 -21 47 -42 94 -47 105 -13 30 -39 106 -39 116 0 5 36 9
80 9 64 0 80 3 80 15 0 12 15 15 74 15 l74 0 -23 -62z m230 42 c17 -18 16 -21
-16 -62 -41 -53 -190 -208 -200 -208 -4 0 11 45 32 100 21 56 39 104 39 109 0
5 7 25 15 45 15 34 18 36 64 36 35 0 53 -5 66 -20z m695 -13 c-29 -27 -127
-107 -165 -135 -28 -20 -185 -111 -220 -127 -22 -10 -48 -22 -57 -26 -44 -22
-279 -99 -298 -99 -3 0 35 21 85 46 49 25 92 48 95 52 3 4 21 16 40 26 38 21
138 97 209 158 24 21 70 50 102 64 31 14 68 37 80 50 20 21 31 24 93 24 l71 0
-35 -33z m-1273 -97 c18 -52 39 -106 45 -120 7 -14 14 -29 17 -35 6 -14 -49
37 -130 120 -70 73 -109 119 -109 130 0 3 32 5 72 3 l71 -3 34 -95z m-231 8
c38 -46 71 -85 74 -88 56 -54 150 -160 135 -153 -11 6 -38 18 -60 28 -113 51
-338 200 -399 264 l-30 31 106 0 106 0 68 -82z m1044 22 l45 0 -60 -55 c-33
-30 -65 -54 -71 -55 -6 0 -22 -8 -35 -19 -21 -16 -72 -45 -169 -97 -14 -7 -43
-20 -64 -29 -38 -15 -38 -14 35 63 41 42 100 107 132 143 l58 66 42 -8 c23 -4
62 -8 87 -9z m-3516 -58 c4 -29 3 -41 -4 -37 -5 3 -10 25 -10 47 0 51 5 47 14
-10z m5604 -169 c-10 -2 -26 -2 -35 0 -10 3 -2 5 17 5 19 0 27 -2 18 -5z m119
1 c-3 -3 -12 -4 -19 -1 -8 3 -5 6 6 6 11 1 17 -2 13 -5z m-4754 -51 c-7 -2
-19 -2 -25 0 -7 3 -2 5 12 5 14 0 19 -2 13 -5z m-195 -10 c-10 -2 -28 -2 -40
0 -13 2 -5 4 17 4 22 1 32 -1 23 -4z m2449 -39 c-3 -3 -12 -4 -19 -1 -8 3 -5
6 6 6 11 1 17 -2 13 -5z m693 -693 c0 -25 -109 -68 -122 -49 -13 22 -4 32 53
54 59 23 69 22 69 -5z m-170 -108 c21 -58 20 -109 -2 -68 -6 11 -12 21 -13 23
-1 1 -15 -3 -32 -9 -18 -6 -30 -17 -29 -26 1 -11 -13 -21 -43 -30 -24 -7 -52
-15 -62 -18 -14 -5 -19 -1 -19 14 0 12 6 21 13 21 6 0 29 5 50 11 33 9 38 14
35 37 -3 30 -18 32 -90 18 -34 -7 -38 -6 -38 12 0 16 11 24 54 36 67 20 76 20
76 1 0 -17 23 -20 50 -5 11 6 17 17 14 25 -4 8 -1 15 4 15 6 0 20 -25 32 -57z"/>
<path d="M5017 5576 c-16 -20 -22 -37 -17 -42 6 -6 -21 -44 -70 -99 -83 -93
-99 -123 -84 -155 5 -10 53 -57 107 -104 69 -61 105 -86 123 -86 28 0 55 25
151 134 42 47 55 57 66 48 11 -9 20 -4 45 27 l31 39 -60 52 -60 53 -30 -29
c-21 -20 -28 -35 -25 -50 5 -20 -18 -52 -114 -157 -10 -11 -115 82 -115 101 0
7 27 45 60 82 42 49 63 66 71 59 8 -6 21 1 43 26 l31 36 -52 49 c-29 27 -58
49 -64 50 -7 0 -23 -15 -37 -34z"/>
<path d="M1689 5562 c-25 -21 -61 -50 -78 -65 l-33 -27 29 -34 c15 -19 34 -34
42 -33 18 2 68 -226 51 -231 -16 -6 -11 -25 15 -55 l25 -28 63 52 c34 28 62
55 62 58 0 14 -44 61 -56 61 -14 1 79 90 93 90 4 0 5 -7 1 -16 -6 -15 32 -64
50 -64 7 0 61 40 121 91 5 5 -3 24 -18 44 -21 28 -31 33 -41 25 -18 -15 -227
69 -220 88 4 12 -43 82 -55 82 -3 -1 -26 -18 -51 -38z m102 -158 c30 -15 30
-16 13 -35 -23 -26 -37 -20 -45 19 -8 37 -8 37 32 16z"/>
<path d="M1339 5228 c-47 -57 -109 -131 -137 -164 l-52 -62 56 -48 57 -48 29
33 30 33 -21 22 -21 22 23 22 c13 12 26 22 30 22 4 0 41 -28 81 -62 56 -48 72
-66 63 -76 -8 -10 -2 -20 24 -42 l34 -30 52 58 c29 31 53 61 53 65 0 19 -56
57 -77 52 -21 -5 -53 18 -165 114 -4 4 3 19 15 35 21 26 26 27 46 16 21 -10
26 -9 47 11 12 13 24 29 26 35 3 10 -88 94 -102 94 -3 0 -44 -46 -91 -102z"/>
<path d="M6375 4901 c-94 -42 -204 -91 -244 -108 -40 -18 -70 -37 -67 -42 7
-10 31 -2 154 55 41 19 75 34 77 34 3 0 30 12 62 26 32 15 91 41 132 59 68 28
103 57 69 54 -7 -1 -90 -35 -183 -78z"/>
<path d="M1082 4877 c-33 -35 -162 -269 -162 -294 0 -13 8 -31 18 -41 27 -27
256 -152 279 -152 11 0 29 10 40 23 37 39 163 272 163 299 0 19 -10 34 -32 51
-63 46 -234 137 -259 137 -14 0 -35 -10 -47 -23z m222 -186 c5 -8 -91 -175
-103 -179 -5 -2 -46 18 -91 43 l-81 47 42 77 c65 120 57 116 150 64 43 -25 81
-48 83 -52z"/>
<path d="M6241 4774 c-79 -24 -147 -46 -149 -49 -14 -14 13 -17 50 -6 151 44
268 84 268 92 0 14 -15 11 -169 -37z"/>
<path d="M6395 4733 c-154 -24 -282 -46 -284 -49 -18 -18 47 -13 292 25 320
49 327 50 327 62 0 14 -35 10 -335 -38z"/>
<path d="M6123 4635 c3 -9 516 -28 526 -19 18 17 -48 23 -272 26 -168 2 -256
0 -254 -7z"/>
<path d="M6115 4590 c-7 -11 -5 -12 185 -49 80 -16 147 -27 149 -25 12 12 -26
25 -149 48 -74 15 -145 28 -157 31 -12 3 -24 1 -28 -5z"/>
<path d="M6096 4561 c-3 -5 41 -41 98 -80 113 -77 136 -89 136 -72 0 6 -48 43
-107 83 -126 85 -120 82 -127 69z"/>
<path d="M870 4437 c-21 -10 -35 -41 -82 -177 -31 -91 -57 -173 -57 -182 -1
-23 64 -45 84 -28 19 16 186 -37 193 -62 3 -13 66 -48 86 -48 5 0 46 120 46
135 0 7 -18 19 -41 28 -33 13 -41 13 -45 3 -6 -17 -44 -9 -44 9 0 6 5 26 10
42 12 32 58 62 69 44 7 -11 55 -31 75 -31 6 0 23 33 35 73 13 39 26 77 28 84
3 7 -13 17 -37 24 -36 11 -44 11 -54 -2 -11 -15 -48 -39 -61 -39 -3 0 -4 8 0
19 13 43 -14 70 -97 96 -44 14 -80 25 -81 25 -1 0 -13 -6 -27 -13z m97 -119
c8 -7 4 -30 -17 -91 -26 -77 -29 -82 -55 -80 -15 1 -30 5 -33 8 -6 5 20 94 44
152 13 33 29 36 61 11z"/>
<path d="M1622 1629 c-40 -44 -72 -88 -72 -99 0 -19 169 -182 194 -188 7 -2
24 10 37 25 29 34 76 44 59 13 -6 -11 -16 -17 -23 -14 -7 2 -22 -5 -33 -17
-19 -21 -19 -21 21 -55 22 -18 45 -34 51 -34 13 0 40 48 31 56 -7 7 46 86 71
106 11 9 12 7 7 -14 -9 -34 24 -55 54 -36 15 9 23 9 35 -1 13 -11 11 -20 -21
-71 -21 -33 -42 -56 -49 -53 -7 2 -19 -8 -28 -24 -14 -29 -14 -29 30 -56 25
-15 48 -27 53 -27 13 0 34 47 27 59 -9 13 54 120 70 121 18 0 35 -26 29 -42
-4 -9 4 -22 19 -32 25 -16 26 -16 52 24 32 49 36 44 -86 120 -120 74 -196 132
-311 233 -63 55 -108 87 -122 87 -16 0 -45 -25 -95 -81z m161 -45 c32 -31 46
-51 42 -63 -3 -11 4 -26 18 -40 21 -19 25 -20 37 -6 20 24 32 7 14 -21 l-16
-24 -48 40 -47 39 -20 -22 c-11 -12 -18 -28 -16 -34 9 -26 -24 -11 -70 32
l-49 45 43 50 c23 27 47 50 53 50 6 0 33 -21 59 -46z"/>
<path d="M2301 1264 c-6 -14 -9 -29 -6 -34 6 -9 -113 -100 -132 -100 -12 0
-33 -30 -33 -47 0 -9 83 -53 100 -53 9 0 26 39 22 53 -3 11 17 8 49 -8 27 -14
28 -17 14 -31 -37 -37 -1 -68 133 -115 l53 -18 9 25 c6 14 8 30 4 35 -8 13 6
70 16 64 4 -2 11 -34 15 -70 5 -51 11 -68 27 -76 18 -10 28 -4 75 43 45 43 54
49 48 28 -4 -14 -13 -30 -20 -36 -8 -5 -17 -22 -20 -36 -6 -23 -3 -27 39 -41
44 -15 46 -15 57 5 6 11 9 29 6 39 -6 24 31 141 43 134 7 -4 30 45 30 65 0 4
-21 13 -46 20 l-45 13 -64 -63 -64 -63 -5 34 c-4 19 -10 58 -14 88 -7 53 -8
55 -51 69 -41 14 -45 13 -58 -4 -7 -10 -12 -29 -11 -43 2 -36 -34 -142 -46
-138 -6 2 -15 38 -19 80 -8 69 -7 77 12 96 36 36 27 56 -40 85 -33 14 -62 26
-63 26 -2 0 -8 -12 -15 -26z m39 -124 c0 -19 -20 -27 -33 -13 -8 7 11 33 24
33 5 0 9 -9 9 -20z"/>
</g>
</svg>
